<?xml version="1.0" encoding="UTF-8" standalone="no"?>
<!-- Created with Inkscape (http://www.inkscape.org/) -->
<svg
   xmlns:dc="http://purl.org/dc/elements/1.1/"
   xmlns:cc="http://web.resource.org/cc/"
   xmlns:rdf="http://www.w3.org/1999/02/22-rdf-syntax-ns#"
   xmlns:svg="http://www.w3.org/2000/svg"
   xmlns="http://www.w3.org/2000/svg"
   xmlns:xlink="http://www.w3.org/1999/xlink"
   xmlns:sodipodi="http://sodipodi.sourceforge.net/DTD/sodipodi-0.dtd"
   xmlns:inkscape="http://www.inkscape.org/namespaces/inkscape"
   height="100.00000pt"
   id="svg2801"
   inkscape:export-filename="/home/irq/stildcpp/images/favusers.png"
   inkscape:export-xdpi="92.160004"
   inkscape:export-ydpi="92.160004"
   inkscape:version="0.45.1"
   sodipodi:docbase="/home/irq/stildcpp/images"
   sodipodi:docname="favusers.svg"
   sodipodi:version="0.32"
   width="100.00000pt"
   inkscape:output_extension="org.inkscape.output.svg.inkscape">
  <metadata
     id="metadata162791">
    <rdf:RDF>
      <cc:Work
         rdf:about="">
        <dc:title></dc:title>
        <dc:description />
        <dc:subject>
          <rdf:Bag />
        </dc:subject>
        <dc:publisher>
          <cc:Agent
             rdf:about="http://www.openclipart.org/">
            <dc:title></dc:title>
          </cc:Agent>
        </dc:publisher>
        <dc:creator>
          <cc:Agent>
            <dc:title></dc:title>
          </cc:Agent>
        </dc:creator>
        <dc:rights>
          <cc:Agent>
            <dc:title></dc:title>
          </cc:Agent>
        </dc:rights>
        <dc:date />
        <dc:format>image/svg+xml</dc:format>
        <dc:type
           rdf:resource="http://purl.org/dc/dcmitype/StillImage" />
        <cc:license
           rdf:resource="http://web.resource.org/cc/PublicDomain" />
        <dc:language></dc:language>
      </cc:Work>
      <cc:License
         rdf:about="http://web.resource.org/cc/PublicDomain">
        <cc:permits
           rdf:resource="http://web.resource.org/cc/Reproduction" />
        <cc:permits
           rdf:resource="http://web.resource.org/cc/Distribution" />
        <cc:permits
           rdf:resource="http://web.resource.org/cc/DerivativeWorks" />
      </cc:License>
    </rdf:RDF>
  </metadata>
  <defs
     id="defs2803">
    <radialGradient
       cx="80.599566"
       cy="33.402904"
       fx="81.553592"
       fy="32.061308"
       id="radialGradient2791"
       inkscape:collect="always"
       r="35.284406"
       xlink:href="#linearGradient4362"
       gradientTransform="scale(0.8352269,1.1972794)"
       gradientUnits="userSpaceOnUse" />
    <radialGradient
       cx="49.760482"
       cy="102.70191"
       fx="50.092871"
       fy="101.92288"
       id="radialGradient2797"
       inkscape:collect="always"
       r="39.648127"
       xlink:href="#linearGradient4362"
       gradientTransform="scale(1.1222336,0.8910801)"
       gradientUnits="userSpaceOnUse" />
    <linearGradient
       gradientTransform="matrix(-0.735147,0,0,1.360273,744.1826,0)"
       gradientUnits="userSpaceOnUse"
       id="linearGradient236"
       inkscape:collect="always"
       x1="205.97354"
       x2="598.86774"
       xlink:href="#linearGradient224"
       y1="186.42870"
       y2="507.66101" />
    <linearGradient
       id="linearGradient224"
       inkscape:collect="always">
      <stop
         id="stop225"
         offset="0"
         style="stop-color:#e6e6e6;stop-opacity:1;" />
      <stop
         id="stop226"
         offset="1"
         style="stop-color:#e6e6e6;stop-opacity:0;" />
    </linearGradient>
    <linearGradient
       gradientTransform="scale(0.735147,1.360273)"
       gradientUnits="userSpaceOnUse"
       id="linearGradient235"
       inkscape:collect="always"
       x1="205.97354"
       x2="598.86774"
       xlink:href="#linearGradient224"
       y1="186.42870"
       y2="507.66101" />
    <linearGradient
       xlink:href="#linearGradient1093"
       id="linearGradient1097"
       gradientTransform="scale(1.0603045,0.9431253)"
       x1="246.39149"
       y1="99.403546"
       x2="363.02498"
       y2="99.403546"
       gradientUnits="userSpaceOnUse" />
    <linearGradient
       id="linearGradient1093">
      <stop
         style="stop-color:#ffffe8;stop-opacity:0.65;"
         offset="0.00000000"
         id="stop1094" />
      <stop
         style="stop-color:#ffffff;stop-opacity:0;"
         offset="1.00000000"
         id="stop1095" />
    </linearGradient>
    <linearGradient
       xlink:href="#linearGradient1093"
       id="linearGradient1096"
       gradientTransform="scale(0.6725089,1.4869691)"
       x1="45.380405"
       y1="157.19896"
       x2="299.25253"
       y2="157.19896"
       gradientUnits="userSpaceOnUse" />
    <linearGradient
       id="linearGradient4384">
      <stop
         id="stop4385"
         offset="0.0000000"
         style="stop-color:#ffffff;stop-opacity:0.77513230;" />
      <stop
         id="stop4386"
         offset="1.0000000"
         style="stop-color:#ffffff;stop-opacity:0.0000000;" />
    </linearGradient>
    <linearGradient
       id="linearGradient4376">
      <stop
         id="stop4377"
         offset="0.0000000"
         style="stop-color:#000000;stop-opacity:0.52645504;" />
      <stop
         id="stop4378"
         offset="1.0000000"
         style="stop-color:#000000;stop-opacity:0.0000000;" />
    </linearGradient>
    <linearGradient
       id="linearGradient4362">
      <stop
         id="stop4363"
         offset="0.0000000"
         style="stop-color:#ffffff;stop-opacity:0.66666669;" />
      <stop
         id="stop4364"
         offset="1.0000000"
         style="stop-color:#ffffff;stop-opacity:0.0000000;" />
    </linearGradient>
    <linearGradient
       id="linearGradient4358">
      <stop
         id="stop4359"
         offset="0"
         style="stop-color:#000;stop-opacity:1;" />
      <stop
         id="stop4360"
         offset="1"
         style="stop-color:#fff;stop-opacity:1;" />
    </linearGradient>
    <linearGradient
       id="linearGradient2860"
       inkscape:collect="always"
       x1="52.119727"
       x2="51.493119"
       xlink:href="#linearGradient4376"
       y1="45.50148"
       y2="58.102171"
       gradientTransform="matrix(1.0990956,0,0,0.9098389,-22.329688,-0.3917489)"
       gradientUnits="userSpaceOnUse" />
    <radialGradient
       cx="42.425397"
       cy="29.481633"
       fx="42.672321"
       fy="29.103533"
       id="radialGradient2862"
       inkscape:collect="always"
       r="26.431529"
       xlink:href="#linearGradient4384"
       gradientTransform="matrix(1.2342881,0,0,0.8101836,-22.329688,-0.3917489)"
       gradientUnits="userSpaceOnUse" />
    <radialGradient
       cx="39.884332"
       cy="91.884989"
       fx="39.519676"
       fy="91.030327"
       id="radialGradient2865"
       inkscape:collect="always"
       r="27.349185"
       xlink:href="#linearGradient4384"
       gradientTransform="matrix(1.0950155,0,0,0.9132291,-22.329688,-0.3917489)"
       gradientUnits="userSpaceOnUse" />
  </defs>
  <sodipodi:namedview
     bordercolor="#666666"
     borderopacity="1.0"
     id="base"
     inkscape:cx="142.69765"
     inkscape:cy="65.522209"
     inkscape:pageopacity="0.0"
     inkscape:pageshadow="2"
     inkscape:window-height="937"
     inkscape:window-width="1272"
     inkscape:window-x="3"
     inkscape:window-y="45"
     inkscape:zoom="2.5526555"
     pagecolor="#ffffff"
     inkscape:current-layer="svg2801" />
  <g
     id="g164271"
     transform="matrix(0.8282283,0,0,0.9367116,35.305209,1.4589101)">
    <path
       transform="translate(2.509562,-4.432856e-2)"
       style="fill:#ffffff;fill-opacity:1;fill-rule:evenodd;stroke:#000000;stroke-width:3.75;stroke-linecap:round;stroke-linejoin:round;stroke-miterlimit:4;stroke-opacity:1"
       sodipodi:nodetypes="cccc"
       id="path164283"
       d="M 60.545133,72.847539 C 65.294534,78.031101 68.316881,87.318315 75.00922,87.318316 C 81.485677,85.518467 82.349205,70.11177 83.212732,66.800051 C 75.872748,71.839624 68.316882,74.71938 60.545133,72.847539 z " />
    <path
       transform="translate(2.509562,-4.432856e-2)"
       style="fill:#0083e4;fill-opacity:1;fill-rule:evenodd;stroke:#000000;stroke-width:3.75;stroke-linecap:round;stroke-linejoin:round;stroke-miterlimit:4;stroke-opacity:1"
       sodipodi:nodetypes="ccssssc"
       id="path164285"
       d="M 31.546762,99.654209 C 31.156121,124.85047 95.78552,127.73183 95.62922,99.654209 C 97.174007,77.325462 86.068776,64.629762 83.309105,66.788232 C 81.907864,67.884209 81.387229,92.223995 71.919297,86.625353 C 67.316417,83.903554 62.167959,73.44849 59.915352,73.101625 C 56.516277,72.578221 50.007529,69.826123 44.029815,64.675414 C 42.461522,63.324094 32.076211,77.214403 31.546762,99.654209 z " />
    <path
       style="fill:url(#radialGradient2797);fill-opacity:1;fill-rule:evenodd;stroke:none;stroke-width:3.75;stroke-linecap:round;stroke-linejoin:round;stroke-miterlimit:4;stroke-opacity:1"
       id="path2796"
       d="M 43.53125,77.3125 C 40.353026,86.016409 37.202011,96.366079 40.377303,105.23542 C 48.984655,117.18204 66.049398,117.25223 79.222417,115.04972 C 88.094278,113.47345 96.636121,105.87972 94.744454,96.188658 C 94.751182,88.561019 93.319573,80.643142 89.09375,74.1875 C 87.954705,81.120157 85.706152,92.347929 76.686643,91.786583 C 66.841974,89.84774 65.058803,76.33878 54.747596,75.105769 C 49.945701,71.530053 45.566465,69.110698 43.783935,76.852875 L 43.53125,77.3125 z " />
    <path
       transform="matrix(0.440859,0,0,0.441062,0.997459,16.38124)"
       style="fill:#794f37;fill-opacity:1;fill-rule:evenodd;stroke:#000000;stroke-width:8.50416374;stroke-linecap:round;stroke-linejoin:round;stroke-miterlimit:4;stroke-opacity:1"
       sodipodi:type="arc"
       sodipodi:ry="57.825485"
       sodipodi:rx="60.94183"
       sodipodi:cy="70.290855"
       sodipodi:cx="150.27701"
       id="path164288"
       d="M 211.21884 70.290855 A 60.94183 57.825485 0 1 1  89.335178,70.290855 A 60.94183 57.825485 0 1 1  211.21884 70.290855 z" />
    <path
       transform="translate(2.509562,-4.432856e-2)"
       style="fill:#ffa600;fill-opacity:1;fill-rule:evenodd;stroke:#000000;stroke-width:3.75;stroke-linecap:round;stroke-linejoin:round;stroke-miterlimit:4;stroke-opacity:1"
       sodipodi:nodetypes="cccccc"
       id="path3720"
       d="M 56.980881,5.8426527 C 39.420698,8.0166254 30.552872,16.206245 24.211446,49.532095 C 14.512196,98.076517 21.871677,115.5525 32.990311,115.56714 C 17.54932,102.40769 63.877625,86.740105 56.295103,44.070713 C 68.4508,48.712358 94.51097,54.349644 95.164349,41.718703 C 97.176702,29.219492 88.64173,4.4775042 56.980881,5.8426527 z " />
    <path
       style="fill:#ffd5d5;fill-opacity:1;fill-rule:evenodd;stroke:none;stroke-width:8.50416374;stroke-linecap:round;stroke-linejoin:round;stroke-miterlimit:4;stroke-opacity:1"
       id="path2164"
       d="M 59.994721,44.336478 C 61.838361,54.711252 60.487531,63.458494 57.619721,70.992728 C 60.937601,72.385519 64.604341,73.211479 68.463471,73.211478 C 83.282801,73.211478 95.289191,61.775498 95.307221,47.711478 C 87.665111,52.192918 69.551571,47.985756 59.994721,44.336478 z " />
    <path
       style="fill:url(#radialGradient2791);fill-opacity:1;fill-rule:evenodd;stroke:none;stroke-width:3.75;stroke-linecap:round;stroke-linejoin:round;stroke-miterlimit:4;stroke-opacity:1"
       id="path2790"
       d="M 52.174948,8.1325312 C 35.846775,12.141346 31.110158,30.475875 28.060647,44.840387 C 24.465246,64.767005 19.485139,85.90438 25.518698,105.82003 C 29.863591,114.87216 28.026452,106.52571 31.049538,102.11795 C 41.311249,87.323083 56.256862,73.307418 55.936774,53.886064 C 56.647391,49.398848 52.34734,38.640985 60.701717,42.254379 C 70.683443,45.202557 82.078811,49.011247 92.143698,44.632531 C 96.945103,37.45042 93.288237,27.137344 88.876323,20.399742 C 81.135092,8.5919962 65.300885,5.0194752 52.174948,8.1325312 z " />
  </g>
  <g
     id="g162842"
     transform="translate(-1.1752467,-0.7834978)">
    <path
       style="fill:#ffffff;fill-opacity:1;fill-rule:evenodd;stroke:#000000;stroke-width:3.75;stroke-linecap:round;stroke-linejoin:round;stroke-miterlimit:4;stroke-opacity:1"
       sodipodi:nodetypes="cccc"
       id="path9383"
       d="M 35.978228,74.112685 C 40.727629,79.296247 43.749976,88.583461 50.442315,88.583462 C 56.918772,86.783613 57.7823,71.376916 58.645827,68.065197 C 51.305843,73.10477 43.749977,75.984526 35.978228,74.112685 z " />
    <path
       transform="matrix(0.440859,0,0,0.441062,-26.079008,17.690711)"
       style="fill:#f0cfa7;fill-opacity:1;fill-rule:evenodd;stroke:#000000;stroke-width:8.50416374;stroke-linecap:round;stroke-linejoin:round;stroke-miterlimit:4;stroke-opacity:1"
       sodipodi:type="arc"
       sodipodi:ry="57.825485"
       sodipodi:rx="60.94183"
       sodipodi:cy="70.290855"
       sodipodi:cx="150.27701"
       id="path3713"
       d="M 211.21884 70.290855 A 60.94183 57.825485 0 1 1  89.335178,70.290855 A 60.94183 57.825485 0 1 1  211.21884 70.290855 z" />
    <path
       style="fill:#8ccb1b;fill-opacity:1;fill-rule:evenodd;stroke:#000000;stroke-width:3.75;stroke-linecap:round;stroke-linejoin:round;stroke-miterlimit:4;stroke-opacity:1"
       sodipodi:nodetypes="ccssssc"
       id="path4369"
       d="M 6.9798572,100.91936 C 6.5892162,126.11561 71.218618,128.99697 71.062318,100.91936 C 72.607098,78.590608 61.501871,65.894908 58.7422,68.053378 C 57.340959,69.149355 56.820324,93.489141 47.352392,87.890499 C 42.749512,85.1687 37.601054,74.713636 35.348447,74.366771 C 31.949372,73.843367 25.440624,71.091269 19.46291,65.94056 C 17.894617,64.58924 7.5093062,78.479549 6.9798572,100.91936 z " />
    <path
       style="fill:#000000;fill-opacity:1;fill-rule:evenodd;stroke:#000000;stroke-width:3.75;stroke-linecap:round;stroke-linejoin:round;stroke-miterlimit:4;stroke-opacity:1"
       sodipodi:nodetypes="ccscc"
       id="path14564"
       d="M 35.708464,4.5058078 C -3.2985638,12.16839 8.7157172,65.815443 21.354132,36.478717 C 23.943308,45.384551 56.937901,50.059693 57.047313,46.381726 C 58.198421,7.4416065 57.572675,47.877866 68.998198,48.143959 C 81.478698,29.026004 63.356433,2.0023577 35.708464,4.5058078 z " />
    <path
       style="fill:url(#linearGradient2860);fill-opacity:1;fill-rule:evenodd;stroke:none;stroke-width:8.50416374;stroke-linecap:round;stroke-linejoin:round;stroke-miterlimit:4;stroke-opacity:1"
       id="path2856"
       d="M 57.541415,30.237493 C 57.167715,31.081354 57.000905,35.578617 56.666415,46.893743 C 56.557005,50.57171 23.536845,45.893328 20.947665,36.987493 C 18.169395,43.436515 15.473995,45.688688 13.291415,45.487493 C 13.102625,46.706893 12.916415,47.937323 12.916415,49.206243 C 12.916415,63.284796 24.960965,74.706243 39.791415,74.706243 C 54.621865,74.706243 66.635165,63.284795 66.635165,49.206243 C 66.635165,48.821966 66.527915,48.461389 66.510165,48.081243 C 61.112705,45.3372 59.025005,33.158322 58.010165,30.581243 C 57.865375,30.453377 57.689155,30.362337 57.541415,30.237493 z " />
    <path
       style="fill:url(#radialGradient2862);fill-opacity:1;fill-rule:evenodd;stroke:none;stroke-width:3.75;stroke-linecap:round;stroke-linejoin:round;stroke-miterlimit:4;stroke-opacity:1"
       id="path2861"
       d="M 35.701562,4.1082511 C 19.936251,6.3183653 6.7839682,23.386351 11.992526,39.065178 C 16.350375,44.591474 17.549155,30.654536 21.803733,32.600264 C 29.316304,41.190891 42.44909,42.830982 53.415797,43.09894 C 56.58783,40.170155 54.186643,32.016663 55.514062,27.139501 C 60.956343,21.350372 61.062684,34.488033 63.431451,37.805465 C 65.364543,44.98847 69.897523,43.33709 70.148705,36.622107 C 73.738371,17.415795 53.735618,1.8424882 35.701562,4.1082511 z " />
    <path
       style="fill:url(#radialGradient2865);fill-opacity:1;fill-rule:evenodd;stroke:none;stroke-width:3.75;stroke-linecap:round;stroke-linejoin:round;stroke-miterlimit:4;stroke-opacity:1"
       id="path2864"
       d="M 19.449052,70.642011 C 12.374789,80.956203 9.1390722,94.132006 10.449052,106.51701 C 16.823873,119.53355 33.863702,121.33352 46.783096,120.37802 C 57.507111,119.76138 71.225213,113.30312 69.980302,100.64201 C 70.161908,90.69218 68.598953,79.353914 61.136552,72.142011 C 58.996845,79.048826 59.77238,90.072672 51.292802,92.485761 C 41.337447,91.676003 40.337324,77.556516 30.550549,76.411358 C 26.564317,75.494518 22.621784,70.695569 19.449052,70.642011 z " />
  </g>
  <g
     id="g162817"
     transform="matrix(8.3128256e-2,0,0,8.8467078e-2,71.206351,81.178071)">
    <path
       sodipodi:nodetypes="cccc"
       id="path738"
       d="M 100,45 C 100,45 30,80 32.5,123.75 C 10,231.25 186.25,415 201.25,422.5 C 151.25,310 63.75,85 100,45 z "
       style="fill:url(#linearGradient1096);fill-opacity:0.5;fill-rule:evenodd;stroke:none;stroke-width:1pt;stroke-linecap:butt;stroke-linejoin:miter;stroke-opacity:1" />
    <path
       sodipodi:nodetypes="ccc"
       id="path739"
       d="M 261.25,148.75 C 277.5,101.25 320,41.25 360,38.75 C 438.75,45 310,81.25 261.25,148.75 z "
       style="fill:url(#linearGradient1097);fill-opacity:0.49803904;fill-rule:evenodd;stroke:none;stroke-width:1pt;stroke-linecap:butt;stroke-linejoin:miter;stroke-opacity:1" />
    <g
       transform="translate(-126.02353,-190.1656)"
       id="g231">
      <path
         style="fill:url(#linearGradient235);fill-opacity:1;stroke:none;stroke-width:18.70000076;stroke-miterlimit:4;stroke-opacity:1"
         sodipodi:nodetypes="ccccccc"
         id="path232"
         d="M 265,253.59375 C 207.04033,253.59375 160,300.63407 160,358.59375 C 160,476.50415 278.91857,507.43251 359.96875,624 C 366.52868,614.08205 220,478.47309 220,378.59375 C 220,320.63407 267.04033,273.59375 325,273.59375 C 325.50453,273.59375 325.99718,273.64912 326.5,273.65625 C 309.22436,261.07286 288.00557,253.59374 265,253.59375 z " />
      <path
         style="fill:#e60000;fill-opacity:1;stroke:none;stroke-width:18.70000076;stroke-miterlimit:4;stroke-opacity:1"
         sodipodi:nodetypes="ccccccc"
         id="path233"
         d="M 263.4157,235.14588 C 197.1757,235.14588 143.41575,288.90587 143.41575,355.14588 C 143.41575,489.90139 279.3489,525.23318 371.9782,658.45392 C 459.55244,526.05056 600.5407,485.59932 600.5407,355.14588 C 600.5407,288.90588 546.7808,235.14587 480.5407,235.14588 C 432.4928,235.14588 391.1391,263.51631 371.9782,304.33338 C 352.8174,263.5163 311.4637,235.14587 263.4157,235.14588 z " />
      <path
         style="fill:url(#linearGradient236);fill-opacity:1;stroke:none;stroke-width:18.70000076;stroke-miterlimit:4;stroke-opacity:1"
         sodipodi:nodetypes="ccccccc"
         id="path234"
         d="M 479.18262,253.59375 C 537.14229,253.59375 584.18262,300.63407 584.18262,358.59375 C 584.18262,476.50415 465.26405,507.43251 384.21387,624 C 377.65394,614.08205 524.18262,478.47309 524.18262,378.59375 C 524.18262,320.63407 477.14229,273.59375 419.18262,273.59375 C 418.67809,273.59375 418.18544,273.64912 417.68262,273.65625 C 434.95826,261.07286 456.17705,253.59374 479.18262,253.59375 z " />
    </g>
  </g>
</svg>
