<?xml version="1.0" encoding="UTF-8" standalone="no"?>
<!-- Created with Inkscape (http://www.inkscape.org/) -->
<svg
   xmlns:i="http://ns.adobe.com/AdobeIllustrator/10.0/"
   xmlns:dc="http://purl.org/dc/elements/1.1/"
   xmlns:cc="http://web.resource.org/cc/"
   xmlns:rdf="http://www.w3.org/1999/02/22-rdf-syntax-ns#"
   xmlns:svg="http://www.w3.org/2000/svg"
   xmlns="http://www.w3.org/2000/svg"
   xmlns:xlink="http://www.w3.org/1999/xlink"
   xmlns:sodipodi="http://sodipodi.sourceforge.net/DTD/sodipodi-0.dtd"
   xmlns:inkscape="http://www.inkscape.org/namespaces/inkscape"
   height="100.00000pt"
   id="svg1753"
   inkscape:export-filename="/home/irq/stildcpp/images/ignoredusers.png"
   inkscape:export-xdpi="92.160004"
   inkscape:export-ydpi="92.160004"
   inkscape:version="0.45.1"
   sodipodi:docbase="/home/irq/stildcpp/images"
   sodipodi:docname="ignoredusers.svg"
   sodipodi:version="0.32"
   width="100.00000pt"
   inkscape:output_extension="org.inkscape.output.svg.inkscape">
  <metadata
     id="metadata9556">
    <rdf:RDF>
      <cc:Work
         rdf:about="">
        <dc:title></dc:title>
        <dc:description />
        <dc:subject>
          <rdf:Bag />
        </dc:subject>
        <dc:publisher>
          <cc:Agent
             rdf:about="http://www.openclipart.org/">
            <dc:title></dc:title>
          </cc:Agent>
        </dc:publisher>
        <dc:creator>
          <cc:Agent>
            <dc:title></dc:title>
          </cc:Agent>
        </dc:creator>
        <dc:rights>
          <cc:Agent>
            <dc:title></dc:title>
          </cc:Agent>
        </dc:rights>
        <dc:date />
        <dc:format>image/svg+xml</dc:format>
        <dc:type
           rdf:resource="http://purl.org/dc/dcmitype/StillImage" />
        <cc:license
           rdf:resource="http://web.resource.org/cc/PublicDomain" />
        <dc:language></dc:language>
      </cc:Work>
      <cc:License
         rdf:about="http://web.resource.org/cc/PublicDomain">
        <cc:permits
           rdf:resource="http://web.resource.org/cc/Reproduction" />
        <cc:permits
           rdf:resource="http://web.resource.org/cc/Distribution" />
        <cc:permits
           rdf:resource="http://web.resource.org/cc/DerivativeWorks" />
      </cc:License>
    </rdf:RDF>
  </metadata>
  <defs
     id="defs1755">
    <linearGradient
       id="linearGradient4358">
      <stop
         id="stop4359"
         offset="0"
         style="stop-color:#000;stop-opacity:1;" />
      <stop
         id="stop4360"
         offset="1"
         style="stop-color:#fff;stop-opacity:1;" />
    </linearGradient>
    <linearGradient
       id="linearGradient4362">
      <stop
         id="stop4363"
         offset="0.0000000"
         style="stop-color:#ffffff;stop-opacity:0.66666669;" />
      <stop
         id="stop4364"
         offset="1.0000000"
         style="stop-color:#ffffff;stop-opacity:0.0000000;" />
    </linearGradient>
    <linearGradient
       id="linearGradient4376">
      <stop
         id="stop4377"
         offset="0.0000000"
         style="stop-color:#000000;stop-opacity:0.52645504;" />
      <stop
         id="stop4378"
         offset="1.0000000"
         style="stop-color:#000000;stop-opacity:0.0000000;" />
    </linearGradient>
    <linearGradient
       id="linearGradient4384">
      <stop
         id="stop4385"
         offset="0.0000000"
         style="stop-color:#ffffff;stop-opacity:0.77513230;" />
      <stop
         id="stop4386"
         offset="1.0000000"
         style="stop-color:#ffffff;stop-opacity:0.0000000;" />
    </linearGradient>
    <linearGradient
       inkscape:collect="always"
       xlink:href="#linearGradient4376"
       id="linearGradient9602"
       x1="50.52668"
       y1="57.093738"
       x2="50.203204"
       y2="74.834393"
       gradientTransform="scale(1.3516689,0.7398261)"
       gradientUnits="userSpaceOnUse" />
    <radialGradient
       inkscape:collect="always"
       xlink:href="#linearGradient4362"
       id="radialGradient9604"
       cx="48.40165"
       cy="32.467054"
       fx="48.40165"
       fy="33.351633"
       r="18.836343"
       gradientTransform="scale(1.1146027,0.8971807)"
       gradientUnits="userSpaceOnUse" />
    <radialGradient
       inkscape:collect="always"
       xlink:href="#linearGradient4362"
       id="radialGradient9606"
       cx="45.139623"
       cy="88.322677"
       fx="45.50637"
       fy="87.892895"
       r="22.00904"
       gradientTransform="scale(1.0914815,0.9161859)"
       gradientUnits="userSpaceOnUse" />
    <radialGradient
       inkscape:collect="always"
       xlink:href="#linearGradient4362"
       id="radialGradient9608"
       cx="117.17439"
       cy="58.54025"
       fx="118.06427"
       fy="58.887858"
       r="11.123441"
       gradientTransform="scale(0.6229142,1.6053575)"
       gradientUnits="userSpaceOnUse" />
    <radialGradient
       inkscape:collect="always"
       xlink:href="#linearGradient4362"
       id="radialGradient9610"
       cx="86.542037"
       cy="61.38567"
       fx="86.542037"
       fy="61.38567"
       r="5.5130484"
       gradientTransform="scale(0.8164966,1.2247449)"
       gradientUnits="userSpaceOnUse" />
  </defs>
  <sodipodi:namedview
     bordercolor="#666666"
     borderopacity="1.0"
     id="base"
     inkscape:cx="81.745838"
     inkscape:cy="49.737852"
     inkscape:pageopacity="0.0"
     inkscape:pageshadow="2"
     inkscape:window-height="937"
     inkscape:window-width="1272"
     inkscape:window-x="3"
     inkscape:window-y="66"
     inkscape:zoom="2.5526555"
     pagecolor="#ffffff"
     inkscape:current-layer="svg1753" />
  <path
     d="M 86.990835,5.7120191 C 69.081011,8.0330661 54.218391,20.281789 60.161581,48.142549 C 61.875611,57.886107 69.420881,61.954672 72.189781,43.193921 C 80.087355,45.679671 114.2873,55.637782 120.99567,38.296766 C 124.98885,31.129463 116.68258,3.3302465 86.990835,5.7120191 z "
     id="path1816"
     sodipodi:nodetypes="ccccc"
     style="fill:#ffffff;fill-opacity:1;fill-rule:evenodd;stroke:#000000;stroke-width:3.75;stroke-linecap:round;stroke-linejoin:round;stroke-miterlimit:4;stroke-opacity:1" />
  <g
     id="g9589"
     transform="matrix(0.7321609,0,0,0.7321609,-12.42218,27.353143)">
    <path
       transform="translate(-5.147184e-2,2.37648)"
       style="fill:#ffffff;fill-opacity:1;fill-rule:evenodd;stroke:#000000;stroke-width:3.75;stroke-linecap:round;stroke-linejoin:round;stroke-miterlimit:4;stroke-opacity:1"
       sodipodi:nodetypes="cccc"
       id="path9383"
       d="M 59.38469,67.874109 C 64.134091,73.057671 67.156438,82.344885 73.848777,82.344886 C 80.325234,80.545037 81.188762,65.13834 82.052289,61.826621 C 74.712305,66.866194 67.156439,69.74595 59.38469,67.874109 z " />
    <path
       transform="matrix(0.440859,0,0,0.441062,-2.724018,13.82862)"
       style="fill:#f1bb96;fill-opacity:1;fill-rule:evenodd;stroke:#000000;stroke-width:8.50416374;stroke-linecap:round;stroke-linejoin:round;stroke-miterlimit:4;stroke-opacity:1"
       sodipodi:type="arc"
       sodipodi:ry="57.825485"
       sodipodi:rx="60.94183"
       sodipodi:cy="70.290855"
       sodipodi:cx="150.27701"
       id="path3713"
       d="M 211.21884 70.290855 A 60.94183 57.825485 0 1 1  89.335178,70.290855 A 60.94183 57.825485 0 1 1  211.21884 70.290855 z" />
    <path
       transform="translate(-5.147184e-2,2.37648)"
       style="fill:#233e6a;fill-opacity:1;fill-rule:evenodd;stroke:#000000;stroke-width:3.75;stroke-linecap:round;stroke-linejoin:round;stroke-miterlimit:4;stroke-opacity:1"
       sodipodi:nodetypes="ccssssc"
       id="path4369"
       d="M 30.386319,94.680779 C 29.995678,119.87704 94.625077,122.7584 94.468777,94.680779 C 96.013564,72.352032 84.908333,59.656332 82.148662,61.814802 C 80.747421,62.910779 80.226786,87.250565 70.758854,81.651923 C 66.155974,78.930124 61.007516,68.47506 58.754909,68.128195 C 55.355834,67.604791 48.847086,64.852693 42.869372,59.701984 C 41.301079,58.350664 30.915768,72.240973 30.386319,94.680779 z " />
    <path
       transform="translate(-5.147184e-2,2.37648)"
       style="fill:#513624;fill-opacity:1;fill-rule:evenodd;stroke:#000000;stroke-width:3.75;stroke-linecap:round;stroke-linejoin:round;stroke-miterlimit:4;stroke-opacity:1"
       sodipodi:nodetypes="ccccc"
       id="path11309"
       d="M 58.300883,3.7719997 C 40.391067,6.0930474 25.528443,18.34177 31.47163,46.20253 C 33.185665,55.946088 40.730937,60.014653 43.499833,41.253902 C 51.397401,43.739652 85.597346,53.697763 92.305717,36.356747 C 96.298888,29.189444 87.992626,1.3902274 58.300883,3.7719997 z " />
    <path
       transform="translate(-5.147184e-2,2.37648)"
       style="fill:#1f4eb3;fill-opacity:1;fill-rule:evenodd;stroke:#000000;stroke-width:3.75;stroke-linecap:round;stroke-linejoin:round;stroke-miterlimit:4;stroke-opacity:1"
       sodipodi:nodetypes="cccc"
       id="path11942"
       d="M 70.933472,109.86904 C 70.786011,93.177856 68.666654,83.890642 74.379621,82.666426 C 79.876705,81.773001 82.943821,101.09718 83.807348,104.4089 C 86.995616,120.42583 73.318673,123.17747 70.933472,109.86904 z " />
    <path
       style="fill:url(#linearGradient9602);fill-opacity:1;fill-rule:evenodd;stroke:none;stroke-width:8.50416374;stroke-linecap:round;stroke-linejoin:round;stroke-miterlimit:4;stroke-opacity:1"
       id="path1811"
       d="M 90.125606,42.239439 C 80.241556,54.411739 50.708234,45.840204 43.438106,43.551939 C 42.469137,50.117222 40.90359,53.749257 39.219356,55.458189 C 43.49154,64.176603 52.741243,70.239439 63.531856,70.239439 C 78.362306,70.239439 90.375606,58.81799 90.375606,44.739439 C 90.375606,43.881313 90.212946,43.075869 90.125606,42.239439 z " />
    <path
       style="fill:url(#radialGradient9604);fill-opacity:1;fill-rule:evenodd;stroke:none;stroke-width:3.75;stroke-linecap:round;stroke-linejoin:round;stroke-miterlimit:4;stroke-opacity:1"
       sodipodi:nodetypes="ccccc"
       id="path1817"
       d="M 59.62851,6.2578814 C 41.71869,8.5789284 26.85607,20.827651 32.79925,48.688411 C 34.51329,58.431969 42.05856,62.500534 44.82746,43.739783 C 52.72503,46.225533 86.92497,56.183644 93.63334,38.842628 C 97.62651,31.675325 89.32025,3.8761084 59.62851,6.2578814 z " />
    <path
       style="fill:url(#radialGradient9606);fill-opacity:1;fill-rule:evenodd;stroke:none;stroke-width:3.75;stroke-linecap:round;stroke-linejoin:round;stroke-miterlimit:4;stroke-opacity:1"
       id="path1819"
       d="M 42.0625,65.8125 C 34.926084,76.261592 31.515418,89.811638 33.34375,102.28125 C 40.404029,114.60166 56.866473,116.47672 69.75,115.25 C 68.68847,106.70204 68.10948,97.601929 69.28497,89.010214 C 71.780616,84.580906 63.471642,82.700871 62.40625,78.3125 C 59.097176,71.072556 49.999461,71.890341 44.753848,66.630403 C 43.883626,66.427058 42.803221,64.05859 42.0625,65.8125 z M 83.25,69.71875 C 82.10399,75.025469 81.570341,80.750808 78.21875,85.25 C 83.402143,92.18153 84.743967,101.36357 86.125,109.71875 C 95.701016,102.98293 92.988051,89.378574 90.774096,79.605886 C 89.77365,75.736542 86.436451,67.658343 83.609912,68.222275 C 83.531963,68.546367 83.292024,69.544017 83.25,69.71875 z " />
    <path
       style="fill:url(#radialGradient9608);fill-opacity:1;fill-rule:evenodd;stroke:none;stroke-width:3.75;stroke-linecap:round;stroke-linejoin:round;stroke-miterlimit:4;stroke-opacity:1"
       sodipodi:nodetypes="cccc"
       id="path1823"
       d="M 70.445695,112.56113 C 70.298235,95.869938 68.178877,86.582728 73.891845,85.358512 C 79.388925,84.465087 82.456045,103.78927 83.319575,107.10099 C 86.507835,123.11792 72.830895,125.86956 70.445695,112.56113 z " />
    <path
       style="fill:#1f4eb3;fill-opacity:1;fill-rule:evenodd;stroke:#000000;stroke-width:3.75;stroke-linecap:round;stroke-linejoin:round;stroke-miterlimit:4;stroke-dasharray:none;stroke-opacity:1"
       sodipodi:nodetypes="ccccc"
       id="path1825"
       d="M 77.562329,79.466759 C 77.562329,82.047091 75.545708,84.141274 73.060944,84.141274 C 70.576179,84.141274 68.559558,82.047091 68.559558,79.466759 C 68.559558,76.886426 69.191137,70.637118 71.675902,70.637118 C 74.160666,70.637118 77.562329,76.886426 77.562329,79.466759 z " />
    <path
       style="fill:url(#radialGradient9610);fill-opacity:1;fill-rule:evenodd;stroke:none;stroke-width:3.75;stroke-linecap:round;stroke-linejoin:round;stroke-miterlimit:4;stroke-opacity:1"
       sodipodi:nodetypes="ccccc"
       id="path1827"
       d="M 76.523544,78.94737 C 76.523544,81.527702 74.506924,83.621885 72.022164,83.621885 C 69.537394,83.621885 67.520774,81.527702 67.520774,78.94737 C 67.520774,76.367037 68.152354,70.117729 70.637114,70.117729 C 73.121884,70.117729 76.523544,76.367037 76.523544,78.94737 z " />
  </g>
  <path
     d="M 92.060994,8.9250557 C 82.476522,8.9250557 74.706777,16.694835 74.706777,26.279274 C 74.706777,35.86371 82.476522,43.633492 92.060994,43.633492 C 101.64547,43.633492 109.41521,35.86371 109.41521,26.279274 C 109.41521,16.694835 101.64547,8.9250557 92.060994,8.9250557 z M 78.439735,26.279274 C 78.439735,18.472398 84.538199,12.143718 92.060994,12.143718 C 95.196902,12.143718 98.084776,13.244168 100.3871,15.092209 L 81.502946,35.20996 C 79.588457,32.77539 78.439735,29.666697 78.439735,26.279274 z M 92.060994,40.414829 C 88.772307,40.414829 85.755888,39.205276 83.402142,37.191657 L 102.34549,17.010859 C 104.42388,19.492413 105.68226,22.73324 105.68226,26.279274 C 105.68226,34.086213 99.58373,40.414829 92.060994,40.414829 z "
     i:knockout="Off"
     id="path8750"
     style="fill:#f40b27;stroke:#000000;stroke-width:0.2612446" />
</svg>
