<?xml version="1.0" encoding="UTF-8" standalone="no"?>
<!-- Created with Inkscape (http://www.inkscape.org/) -->
<svg
   xmlns:dc="http://purl.org/dc/elements/1.1/"
   xmlns:cc="http://web.resource.org/cc/"
   xmlns:rdf="http://www.w3.org/1999/02/22-rdf-syntax-ns#"
   xmlns:svg="http://www.w3.org/2000/svg"
   xmlns="http://www.w3.org/2000/svg"
   xmlns:xlink="http://www.w3.org/1999/xlink"
   xmlns:sodipodi="http://sodipodi.sourceforge.net/DTD/sodipodi-0.dtd"
   xmlns:inkscape="http://www.inkscape.org/namespaces/inkscape"
   height="100.00000pt"
   id="svg2929"
   inkscape:export-filename="/home/Krug/Kunden/KlimaPartner Berlin/Unterlagen/Grafiken/katalog.png"
   inkscape:export-xdpi="72.000000"
   inkscape:export-ydpi="72.000000"
   inkscape:version="0.45.1"
   sodipodi:docbase="/home/irq/stildcpp/images"
   sodipodi:docname="note.svg"
   sodipodi:version="0.32"
   width="100.00000pt"
   inkscape:output_extension="org.inkscape.output.svg.inkscape">
  <metadata
     id="metadata22103">
    <rdf:RDF>
      <cc:Work
         rdf:about="">
        <dc:title></dc:title>
        <dc:description />
        <dc:subject>
          <rdf:Bag />
        </dc:subject>
        <dc:publisher>
          <cc:Agent
             rdf:about="http://www.openclipart.org/">
            <dc:title></dc:title>
          </cc:Agent>
        </dc:publisher>
        <dc:creator>
          <cc:Agent>
            <dc:title></dc:title>
          </cc:Agent>
        </dc:creator>
        <dc:rights>
          <cc:Agent>
            <dc:title></dc:title>
          </cc:Agent>
        </dc:rights>
        <dc:date />
        <dc:format>image/svg+xml</dc:format>
        <dc:type
           rdf:resource="http://purl.org/dc/dcmitype/StillImage" />
        <cc:license
           rdf:resource="http://web.resource.org/cc/PublicDomain" />
        <dc:language></dc:language>
      </cc:Work>
      <cc:License
         rdf:about="http://web.resource.org/cc/PublicDomain">
        <cc:permits
           rdf:resource="http://web.resource.org/cc/Reproduction" />
        <cc:permits
           rdf:resource="http://web.resource.org/cc/Distribution" />
        <cc:permits
           rdf:resource="http://web.resource.org/cc/DerivativeWorks" />
      </cc:License>
    </rdf:RDF>
  </metadata>
  <defs
     id="defs2931">
    <linearGradient
       id="linearGradient4902">
      <stop
         id="stop4903"
         offset="0.0000000"
         style="stop-color:#777779;stop-opacity:1.0000000;" />
      <stop
         id="stop4904"
         offset="1.0000000"
         style="stop-color:#ffffff;stop-opacity:0.0000000;" />
    </linearGradient>
    <linearGradient
       id="linearGradient4896">
      <stop
         id="stop4897"
         offset="0.0000000"
         style="stop-color:#ff5400;stop-opacity:1.0000000;" />
      <stop
         id="stop4898"
         offset="1.0000000"
         style="stop-color:#ffe500;stop-opacity:1.0000000;" />
    </linearGradient>
    <linearGradient
       id="linearGradient4836">
      <stop
         id="stop4837"
         offset="0.0000000"
         style="stop-color:#777779;stop-opacity:1.0000000;" />
      <stop
         id="stop4838"
         offset="1.0000000"
         style="stop-color:#ffffff;stop-opacity:0.0000000;" />
    </linearGradient>
    <linearGradient
       id="linearGradient4828">
      <stop
         id="stop4829"
         offset="0.0000000"
         style="stop-color:#ffffff;stop-opacity:0.66931218;" />
      <stop
         id="stop4830"
         offset="1.0000000"
         style="stop-color:#ffffff;stop-opacity:0.0000000;" />
    </linearGradient>
    <radialGradient
       cx="0.50000000"
       cy="0.50000000"
       fx="0.50000000"
       fy="0.50000000"
       id="radialGradient4835"
       inkscape:collect="always"
       r="0.53191966"
       spreadMethod="pad"
       xlink:href="#linearGradient4836" />
    <linearGradient
       id="linearGradient4894"
       inkscape:collect="always"
       x1="5.6175225e-18"
       x2="1.0000000"
       xlink:href="#linearGradient4828"
       y1="0.50000000"
       y2="0.50000000" />
    <linearGradient
       id="linearGradient4895"
       inkscape:collect="always"
       x1="-0.10169491"
       x2="1.0338984"
       xlink:href="#linearGradient4896"
       y1="0.20312500"
       y2="0.79687500" />
    <linearGradient
       id="linearGradient4908"
       inkscape:collect="always"
       x1="1.0333333"
       x2="0.46666667"
       xlink:href="#linearGradient4902"
       y1="0.23437500"
       y2="0.39843750" />
    <linearGradient
       id="linearGradient1575"
       inkscape:collect="always"
       x1="0.98863637"
       x2="0.22727273"
       xlink:href="#linearGradient4902"
       y1="0.58593750"
       y2="0.51562500" />
  </defs>
  <sodipodi:namedview
     bordercolor="#666666"
     borderopacity="1.0"
     id="base"
     inkscape:cx="89.369339"
     inkscape:cy="58.584552"
     inkscape:guide-bbox="true"
     inkscape:pageopacity="0.0"
     inkscape:pageshadow="2"
     inkscape:window-height="937"
     inkscape:window-width="1272"
     inkscape:window-x="3"
     inkscape:window-y="45"
     inkscape:zoom="4.5125"
     pagecolor="#ffffff"
     showguides="true"
     inkscape:current-layer="svg2929" />
  <path
     d="M 130.47091 76.523544 A 46.121883 48.199448 0 1 0 38.227146,76.523544 A 46.121883 48.199448 0 1 0 130.47091 76.523544 z"
     id="path4834"
     sodipodi:cx="84.349030"
     sodipodi:cy="76.523544"
     sodipodi:rx="46.121883"
     sodipodi:ry="48.199448"
     sodipodi:type="arc"
     style="fill:url(#radialGradient4835);fill-opacity:1;fill-rule:evenodd;stroke:none;stroke-width:1.0000000pt;stroke-linecap:butt;stroke-linejoin:miter;stroke-opacity:1.0000000;"
     transform="matrix(1.310715,-4.497141e-2,1.057910e-2,0.280346,-55.08395,92.25383)" />
  <path
     d="M 109.74965,2.3579933 L 60.550865,34.333450 L 10.511912,26.978023 L 6.2042912,105.49643 L 61.246383,108.52864 L 61.246383,108.19525 L 119.96279,98.435915 L 109.74965,2.3579933 z "
     id="path4889"
     sodipodi:nodetypes="cccccccc"
     style="fill:url(#linearGradient4895);fill-opacity:1.0000000;fill-rule:evenodd;stroke:#000000;stroke-width:2.6647084;stroke-linecap:round;stroke-linejoin:round;stroke-miterlimit:4.0000000;stroke-opacity:1.0000000;" />
  <path
     d="M 69.520629,40.539290 L 62.351952,105.23207 L 110.66991,93.633524 L 106.42964,47.344347 L 110.83507,43.434589 L 108.92694,27.187824 L 104.60477,30.918773 L 103.41851,11.562882 L 69.520629,40.539290 z "
     id="path4899"
     sodipodi:nodetypes="ccccccccc"
     style="fill:#000000;fill-opacity:0.45937499;fill-rule:evenodd;stroke:none;stroke-width:1.0308907pt;stroke-linecap:butt;stroke-linejoin:miter;stroke-opacity:1.0000000;" />
  <path
     d="M 62.536370,37.099794 L 61.303424,103.87510 L 104.98360,86.970073 L 100.74333,40.680900 L 105.14877,36.771142 L 103.24063,20.524377 L 98.918474,24.255326 L 98.563224,10.993618 L 62.536370,37.099794 z "
     id="path4839"
     sodipodi:nodetypes="ccccccccc"
     style="fill:#ffffff;fill-opacity:1.0000000;fill-rule:evenodd;stroke:none;stroke-width:1.0308907pt;stroke-linecap:butt;stroke-linejoin:miter;stroke-opacity:1.0000000;" />
  <path
     d="M 62.571821,37.063370 L 61.892893,104.39270 L 105.01905,86.933651 L 100.77877,40.644476 L 105.18423,36.734719 L 103.27608,20.487953 L 98.953914,24.218903 L 98.321664,10.680185 L 62.571821,37.063370 z "
     id="path4907"
     sodipodi:nodetypes="ccccccccc"
     style="fill:url(#linearGradient4908);fill-opacity:1.0000000;fill-rule:evenodd;stroke:none;stroke-width:1.0308907pt;stroke-linecap:butt;stroke-linejoin:miter;stroke-opacity:1.0000000;" />
  <path
     d="M 58.158463,41.115068 L 55.970538,105.83090 L 10.246325,102.01328 L 13.623677,53.873661 L 9.9855825,51.953644 L 12.056202,35.581845 L 58.158463,41.115068 z "
     id="path952"
     sodipodi:nodetypes="ccccccc"
     style="fill:#000000;fill-opacity:0.46250001;fill-rule:evenodd;stroke:none;stroke-width:0.67932096pt;stroke-linecap:butt;stroke-linejoin:miter;stroke-opacity:1.0000000;" />
  <path
     d="M 60.687079,38.326618 L 58.499154,103.04245 L 12.774941,99.224825 L 16.152293,51.085211 L 12.514199,49.165194 L 14.584818,32.793395 L 60.687079,38.326618 z "
     id="path4866"
     sodipodi:nodetypes="ccccccc"
     style="fill:#ffffff;fill-opacity:1.0000000;fill-rule:evenodd;stroke:none;stroke-width:0.67932096pt;stroke-linecap:butt;stroke-linejoin:miter;stroke-opacity:1.0000000;" />
  <path
     d="M 60.374529,38.344986 L 58.186604,103.06082 L 12.462391,99.243195 L 15.839743,51.103579 L 12.201649,49.183562 L 14.272268,32.811763 L 60.374529,38.344986 z "
     id="path1574"
     sodipodi:nodetypes="ccccccc"
     style="fill:url(#linearGradient1575);fill-opacity:1.0000000;fill-rule:evenodd;stroke:none;stroke-width:0.67932096pt;stroke-linecap:butt;stroke-linejoin:miter;stroke-opacity:1.0000000;" />
  <path
     d="M 64.646383,48.547055 C 63.187452,44.717261 61.230591,42.212468 56.899555,43.373253 C 52.613616,43.457360 48.425035,48.341625 53.576392,52.821712"
     id="path2940"
     sodipodi:nodetypes="ccc"
     style="fill:none;fill-opacity:0.75000000;fill-rule:evenodd;stroke:#000000;stroke-width:1.5988250;stroke-linecap:round;stroke-linejoin:round;stroke-miterlimit:4.0000000;stroke-opacity:1.0000000;" />
  <path
     d="M 65.737400,61.139223 C 64.278469,57.309428 62.321608,54.804636 57.990573,55.965420 C 53.704633,56.049527 49.516052,60.933792 54.667408,65.413880"
     id="path4877"
     sodipodi:nodetypes="ccc"
     style="fill:none;fill-opacity:0.75000000;fill-rule:evenodd;stroke:#000000;stroke-width:1.5988250;stroke-linecap:round;stroke-linejoin:round;stroke-miterlimit:4.0000000;stroke-opacity:1.0000000;" />
  <path
     d="M 66.710863,88.274134 C 65.251933,84.444341 63.295072,81.939549 58.964037,83.100332 C 54.678096,83.184440 50.489516,88.068704 55.640872,92.548794"
     id="path4878"
     sodipodi:nodetypes="ccc"
     style="fill:none;fill-opacity:0.75000000;fill-rule:evenodd;stroke:#000000;stroke-width:1.5988250;stroke-linecap:round;stroke-linejoin:round;stroke-miterlimit:4.0000000;stroke-opacity:1.0000000;" />
  <path
     d="M 66.386375,74.303685 C 64.927445,70.473891 62.970583,67.969099 58.639548,69.129882 C 54.353609,69.213990 50.165027,74.098255 55.316385,78.578342"
     id="path4879"
     sodipodi:nodetypes="ccc"
     style="fill:none;fill-opacity:0.75000000;fill-rule:evenodd;stroke:#000000;stroke-width:1.5988250;stroke-linecap:round;stroke-linejoin:round;stroke-miterlimit:4.0000000;stroke-opacity:1.0000000;" />
  <path
     d="M 108.77669,1.0135453 C 92.377100,11.672030 75.977503,22.330516 59.577907,32.989001 C 41.848283,29.644964 27.593066,29.246273 9.8634415,25.902236 C 8.2771705,51.674557 7.3716207,80.041698 5.7853502,105.81403 C 37.733696,44.055474 84.156709,108.27302 108.77669,1.0135453 z "
     id="path4892"
     sodipodi:nodetypes="ccccc"
     style="fill:url(#linearGradient4894);fill-opacity:1.0000000;fill-rule:evenodd;stroke:none;stroke-width:2.5000000;stroke-linecap:round;stroke-linejoin:round;stroke-miterlimit:4.0000000;stroke-opacity:1.0000000;" />
  <path
     style="opacity:1;fill:#000000;fill-opacity:0.99607843;fill-rule:nonzero;stroke:#000000;stroke-width:0.99921262;stroke-miterlimit:4;stroke-dasharray:none;stroke-opacity:0"
     id="path22192"
     d="M 18.320525,58.144162 C 18.434147,58.952477 18.480571,59.763661 18.606881,60.569556 C 18.630147,61.058619 18.799434,61.508959 18.919119,61.971194 C 19.157813,62.462622 19.202057,63.010293 19.28312,63.543935 C 19.399631,64.326848 19.534954,65.106358 19.706494,65.878989 C 19.799159,66.351269 19.874168,66.828007 19.944001,67.302507 C 20.069095,67.734211 20.059191,68.180726 20.071688,68.62445 C 19.774311,69.795657 18.574322,70.241697 18.071415,69.143028 C 18.013841,68.60625 18.023286,68.058705 18.011424,67.52195 C 17.872712,66.99861 17.859929,66.458892 17.825865,65.922877 C 17.82178,65.475363 17.829729,65.027806 17.834684,64.580314 C 17.837422,64.139292 17.836119,63.69826 17.835982,63.257233 C 17.814763,62.807102 17.84785,62.35815 17.871166,61.91162 C 17.99598,61.476141 18.047615,61.027028 18.105722,60.580169 C 18.124178,60.124944 18.359294,59.768707 18.519454,59.372343 C 19.152025,58.544726 20.30474,58.349336 21.156836,57.965034 C 21.605872,57.930791 22.05445,58.018193 22.489396,58.062034 C 22.836832,58.161431 23.009846,58.47622 23.248367,58.714542 C 23.60872,59.069486 23.703634,59.496609 23.842501,59.953448 C 23.879369,60.407442 23.847654,60.863762 23.832151,61.318221 C 23.872063,61.780938 23.775974,62.214201 23.683373,62.661842 C 23.538078,63.261706 23.797022,63.690837 24.035752,64.213563 C 24.293747,64.704454 24.403487,65.222398 24.511953,65.755207 C 24.559805,66.17295 24.902936,66.095613 25.169142,66.231578 C 25.65069,66.305697 26.040649,66.143311 26.47659,65.986533 C 26.351769,66.157529 25.712033,66.288414 25.859413,66.136431 C 26.087798,65.804923 26.026729,65.427258 26.055668,65.050878 C 26.060925,64.607957 26.2581,64.226016 26.398524,63.821472 C 26.527358,63.391666 26.666742,62.965612 26.797807,62.536444 C 26.919258,61.998397 27.018862,61.455878 27.126546,60.915568 C 27.132395,60.42214 27.236313,59.943605 27.333424,59.462281 C 27.340217,59.048663 27.413285,58.640755 27.456008,58.235772 C 27.497255,57.874322 27.783137,57.675892 27.973621,57.406235 C 32.751718,54.275126 25.721819,58.87838 30.127129,56.073495 C 30.571965,55.790266 29.208991,56.592544 28.749922,56.852068 C 29.656095,55.921502 30.323392,55.823437 31.355196,55.76288 C 31.771171,55.764681 32.137938,55.978972 32.51519,56.131844 C 32.91227,56.383667 33.165328,56.778276 33.437817,57.149295 C 33.616299,57.539742 33.636473,57.982969 33.690421,58.405564 C 33.803219,58.851213 33.797449,59.308587 33.810184,59.763775 C 33.694849,60.202872 33.645117,60.652441 33.570896,61.097951 C 33.45925,61.631248 33.179616,62.117847 32.949105,62.609889 C 32.567203,63.678445 31.681548,63.856378 30.675948,64.406467 C 30.23265,64.403772 29.789474,64.37391 29.346533,64.353484 C 28.908698,64.42032 28.503902,64.28968 28.089503,64.228773 C 27.814257,64.04385 27.621505,63.776711 27.39428,63.542325 C 27.139189,63.276951 27.070578,62.923318 26.933181,62.603255 C 26.892337,62.298171 26.804848,61.997481 26.725976,61.69958 L 28.272958,60.875987 C 28.352078,61.171659 28.435572,61.474111 28.478426,61.775705 C 28.6025,62.060699 28.651011,62.39049 28.890697,62.623162 C 29.101002,62.837297 29.270714,63.09776 29.541201,63.243824 C 29.9436,63.284126 30.350096,63.368254 30.764875,63.330854 C 31.1985,63.351714 31.638076,63.400844 32.069549,63.341691 C 31.945589,63.419682 30.348144,64.761318 31.364337,63.329605 C 31.586225,62.851787 31.83918,62.378295 32.007085,61.881691 C 32.05811,61.433287 32.096796,60.987797 32.251566,60.557744 C 32.236547,60.114258 32.262138,59.666683 32.149295,59.231712 C 32.092191,58.831074 32.064623,58.415276 31.928,58.035892 C 31.662048,57.700533 31.454717,57.309151 31.059378,57.103063 C 30.693069,56.963232 30.345444,56.765711 29.940005,56.79104 C 28.28152,57.031919 30.40742,56.397182 30.37793,56.193666 C 30.264972,56.262216 27.14066,58.150014 29.601761,56.748193 C 29.391843,56.981289 29.099816,57.144353 29.043023,57.487886 C 28.986783,57.883826 28.87908,58.277313 28.904417,58.693235 C 28.807365,59.174332 28.690279,59.650907 28.689018,60.144355 C 28.588665,60.694464 28.48613,61.24067 28.372683,61.788908 C 28.246377,62.220922 28.103592,62.648095 27.988568,63.082526 C 27.841874,63.470903 27.649798,63.829751 27.613305,64.254985 C 27.598208,64.653505 27.660942,65.062189 27.466773,65.430266 C 26.853485,66.184313 26.213034,66.811016 25.107324,67.070516 C 24.649368,67.191171 24.221526,67.339143 23.734876,67.23914 C 23.375075,67.042425 23.073103,67.04326 22.960993,66.563274 C 22.870339,66.045691 22.773606,65.548672 22.523045,65.073085 C 22.266904,64.524306 21.98584,64.054569 22.107698,63.42015 C 22.214409,62.982951 22.312976,62.56341 22.271427,62.108063 C 22.286705,61.662366 22.314182,61.215771 22.296564,60.769967 C 22.145625,60.354313 22.116384,59.927873 21.738945,59.61201 C 21.519477,59.404543 21.370261,59.118125 21.044931,59.055358 C 20.616948,59.026676 20.183791,58.966801 19.751337,59.005475 C 19.882001,58.901227 20.250722,58.560974 20.123281,58.669138 C 19.940101,59.053102 19.685556,59.354799 19.680474,59.819827 C 19.620618,60.26233 19.57025,60.71466 19.444231,61.147534 C 19.419449,61.579872 19.358747,62.0221 19.394494,62.462966 C 19.39483,62.90435 19.395991,63.345737 19.394218,63.78712 C 19.388885,64.233594 19.38362,64.680091 19.379733,65.126575 C 19.405803,65.655142 19.406684,66.187973 19.557433,66.701458 C 19.572449,67.234178 19.575093,67.777865 19.609074,68.314039 C 19.555897,68.379988 18.850139,70.874984 18.512928,69.418207 C 18.497741,68.988626 18.52807,68.553949 18.404708,68.13494 C 18.334291,67.657559 18.245895,67.181857 18.17905,66.70098 C 18.010926,65.925078 17.875835,65.142878 17.749225,64.359465 C 17.665962,63.842174 17.618449,63.309035 17.395837,62.829843 C 17.237643,62.354598 17.101761,61.892901 17.075068,61.383474 C 16.95128,60.577861 16.913386,59.766444 16.778888,58.96201 L 18.320525,58.144162 z " />
  <path
     style="opacity:1;fill:#000000;fill-opacity:0.99607843;fill-rule:nonzero;stroke:#000000;stroke-width:0.99921262;stroke-miterlimit:4;stroke-dasharray:none;stroke-opacity:0"
     id="path22194"
     d="M 35.787426,49.601833 C 35.811296,50.728949 35.74729,51.845995 35.635627,52.966447 C 35.559489,53.54822 35.561189,54.133599 35.560292,54.718601 C 35.553099,55.164952 35.757146,55.562849 35.924123,55.96621 C 36.061914,56.556347 36.240832,57.13443 36.419746,57.712838 C 36.657098,58.327242 36.896398,58.931328 37.165032,59.531505 C 37.356366,59.868373 37.474495,60.226764 37.615363,60.583511 C 37.768697,61.077401 38.04385,60.996012 38.436804,61.149144 C 39.216112,61.109862 40.850588,60.072078 38.237859,61.535423 C 38.621782,61.199976 39.026282,60.890299 39.429695,60.578884 C 39.635844,60.414433 39.849968,60.260817 40.06007,60.101809 L 41.685334,59.465175 C 41.474105,59.620973 41.248472,59.757904 41.050501,59.933413 C 40.64639,60.241204 40.228541,60.538511 39.865587,60.894851 C 38.826802,61.507133 38.149593,62.127564 37.007504,62.158008 C 36.607826,61.950553 36.232791,61.97511 36.083795,61.442029 C 35.948134,61.086898 35.831915,60.731143 35.649176,60.393006 C 35.380536,59.783543 35.145259,59.169833 34.900568,58.549642 C 34.719042,57.974465 34.527591,57.40157 34.394579,56.812499 C 34.219588,56.394706 34.006029,55.97601 34.001858,55.515095 C 34.005769,54.919363 34.008849,54.323603 34.091317,53.731691 C 34.218671,52.619766 34.31204,51.511288 34.240275,50.390145 L 35.787426,49.601833 z " />
  <path
     style="opacity:1;fill:#000000;fill-opacity:0.99607843;fill-rule:nonzero;stroke:#000000;stroke-width:0.99921262;stroke-miterlimit:4;stroke-dasharray:none;stroke-opacity:0"
     id="path22196"
     d="M 41.55176,56.226212 C 42.21259,55.891411 42.777678,55.427455 43.345681,54.962894 C 43.687792,54.702996 43.786675,54.30294 43.972312,53.952276 C 44.034707,53.527189 43.687208,53.492936 43.481318,53.268757 C 43.164256,53.01694 42.804864,53.067155 42.432395,53.025904 C 42.251092,52.968859 42.816464,53.047684 43.002304,53.007831 C 42.864051,53.381147 42.680553,53.731619 42.514133,54.091718 C 42.343724,54.488 42.303457,54.913239 42.215234,55.327374 C 42.096831,55.742061 42.284658,56.061339 42.385094,56.416515 C 42.592011,56.671685 42.734193,56.964963 42.900767,57.244916 C 43.150342,57.58472 43.407769,57.919284 43.656649,58.257048 C 44.021744,58.596432 44.429289,58.631426 44.888871,58.705716 C 45.335419,58.698523 45.781835,58.681495 46.228318,58.669209 C 46.746977,58.711148 47.236009,58.537305 47.729217,58.415595 C 48.191005,58.231512 48.6463,58.019806 49.097527,57.81386 C 49.827573,57.611312 51.436878,56.661788 48.721996,58.184801 C 48.974369,57.941909 48.865725,57.616709 48.898094,57.308955 L 50.453326,56.509341 C 50.441157,56.853479 50.528502,57.212425 50.351466,57.531487 C 49.435403,58.078824 48.701927,58.585254 47.720052,58.8902 C 47.271618,59.103257 46.825284,59.333191 46.350309,59.482903 C 45.843524,59.593621 45.341346,59.738223 44.815264,59.700313 C 44.365751,59.714084 43.915495,59.738942 43.465902,59.72175 C 42.982408,59.609418 42.535087,59.539828 42.161645,59.164548 C 41.90589,58.817756 41.644759,58.472497 41.383175,58.127846 C 41.219516,57.852954 41.080497,57.564238 40.87617,57.314195 C 40.752254,56.914132 40.526809,56.574482 40.650068,56.107555 C 40.713026,55.671398 40.772198,55.244364 40.92263,54.826993 C 41.09175,54.460785 41.288366,54.110746 41.402093,53.718943 C 41.944301,52.846022 42.801136,52.151949 43.850957,52.001205 C 44.231833,52.068876 44.614859,52.041279 44.942653,52.298237 C 45.24052,52.584443 45.544787,52.704859 45.549302,53.195692 C 45.401314,53.601683 45.291739,53.986709 44.967045,54.305847 C 44.398702,54.775771 43.845306,55.266662 43.172141,55.592203 L 41.55176,56.226212 z " />
  <path
     style="opacity:1;fill:#000000;fill-opacity:0.99607843;fill-rule:nonzero;stroke:#000000;stroke-width:0.99921262;stroke-miterlimit:4;stroke-dasharray:none;stroke-opacity:0"
     id="path22198"
     d="M 34.85113,56.78942 C 35.739591,56.53959 36.639086,56.337718 37.529868,56.097338 C 37.428966,56.279428 36.781847,56.285145 36.905669,56.117794 C 36.93431,56.075635 36.962951,56.033477 36.991591,55.991318 L 38.598478,55.282832 C 38.571575,55.329321 38.544671,55.375809 38.517768,55.422298 C 37.959285,56.273725 37.244309,56.87746 36.153673,57.152047 C 35.257921,57.379426 34.356499,57.582449 33.473879,57.8594 L 34.85113,56.78942 z " />
</svg>
